<svg width="1036" height="1179" viewBox="0 0 1036 1179" fill="none" xmlns="http://www.w3.org/2000/svg">
<path d="M0 116V182.5C0.666667 437.333 2 969.3 2 1058.5C2 1147.7 75 1176 111.5 1179H133H261C279.4 1179 279.667 1171.67 277.5 1168C150.3 941.2 100.167 746.5 91 677.5C89.3333 661.5 87 621.3 91 588.5C95 555.7 100.667 536.833 103 531.5C125.4 435.9 237.667 413.667 291 414.5H312C336 414.5 395.3 415.6 440.5 420C485.7 424.4 459.333 442.167 440.5 450.5C422.667 458.333 381.8 476.1 361 484.5C340.2 492.9 341.333 496 344.5 496.5C370.9 504.9 503.5 445.333 566.5 414.5C740.9 379.3 827.5 459.167 849 503.5C921.8 697.1 803.667 950.167 735.5 1052.5C725.5 1067.17 702 1099.6 688 1112C674 1124.4 682.167 1125.83 688 1125C734 1113.8 838.833 1026.33 885.5 984C1126.5 709.5 1040 351.897 885.5 189C825 123 729 63.5 641.5 32C571.5 6.8 464 0.499837 419 0.499756H392H247.5H117.5C53.5 0.499756 0 42.3997 0 116Z" fill="url(#paint0_linear_631_4)"/>
<path d="M404.5 1175.5H405.258C405.284 1174.93 404.448 1173.18 401.5 1169C396.7 1162.2 392.167 1142.5 390.5 1133.5C386.5 1118.7 385 1055 390.5 1028.5C396 1002 401.289 956.899 459.5 951.5C532.44 944.735 556.333 1045 559 1093.5C559 1102.67 557.8 1126.4 553 1148C548.2 1169.6 522 1175.33 509.5 1175.5H405.258C405.242 1175.86 404.886 1175.76 404.5 1175.5Z" fill="url(#paint1_linear_631_4)"/>
<path d="M728 357C773.2 313.8 746.833 269 728 252C724 247.992 718.667 243.663 716.5 242C703.7 217.2 718.833 225.667 728 233L763 266C784.2 282 807.833 272.667 817 266L858 233C877 219.5 871.5 237 837 273C809.4 301.8 825.5 332.333 837 344L871.5 380C876.167 390 875.8 400.9 837 364.5C798.2 328.1 756.833 349.333 741 364.5L724 380C697.6 400.8 706.667 383.333 714.5 372L728 357Z" fill="white"/>
<defs>
<linearGradient id="paint0_linear_631_4" x1="517.773" y1="0.499756" x2="517.773" y2="1179" gradientUnits="userSpaceOnUse">
<stop stop-color="#00EBFA"/>
<stop offset="0.78" stop-color="#0086E8"/>
</linearGradient>
<linearGradient id="paint1_linear_631_4" x1="517.773" y1="0.499756" x2="517.773" y2="1179" gradientUnits="userSpaceOnUse">
<stop stop-color="#00EBFA"/>
<stop offset="0.78" stop-color="#0086E8"/>
</linearGradient>
</defs>
</svg>
